<svg width="156" height="46" viewBox="0 0 156 46" fill="none" xmlns="http://www.w3.org/2000/svg">
<mask id="mask0_1_83" style="mask-type:luminance" maskUnits="userSpaceOnUse" x="0" y="0" width="47" height="46">
<path d="M46.0328 0H0V46H46.0328V0Z" fill="white"/>
</mask>
<g mask="url(#mask0_1_83)">
<path d="M31.2876 10.0653C31.0308 8.62093 30.8289 7.17607 30.6408 5.7312L30.5723 5.18951L30.5386 4.91839L30.5304 4.85089C30.5276 4.82858 30.5255 4.80352 30.5211 4.78883L30.4988 4.68704C30.441 4.41808 30.3368 4.16984 30.1955 3.95261C30.0527 3.73594 29.8773 3.54758 29.6748 3.40276C29.4725 3.25848 29.2524 3.15124 29.0256 3.09136C28.7989 3.03094 28.5706 3.01079 28.3477 3.03202L27.3235 3.12456L26.2252 3.21929C25.859 3.25032 25.4933 3.2808 25.1271 3.30857C23.6624 3.42509 22.1985 3.52634 20.734 3.61562C20.0021 3.6619 19.2695 3.70164 18.5376 3.74193L18.2628 3.75717L18.1256 3.76425L18.0913 3.76589L18.0748 3.76696L18.0682 3.76861L18.0429 3.77459C18.0257 3.7784 18.0092 3.78113 17.9921 3.78329C17.975 3.78548 17.9578 3.78603 17.9425 3.79364C17.911 3.80563 17.8784 3.81052 17.8471 3.82087C17.7229 3.86115 17.6136 3.93139 17.5167 4.01033C17.4195 4.09034 17.3384 4.1878 17.2794 4.29288C17.2209 4.39848 17.1818 4.50791 17.1636 4.61897C17.152 4.67395 17.1532 4.73112 17.1515 4.7872C17.1537 4.8019 17.1548 4.81604 17.1553 4.83021V4.85144V4.86232V4.86777V4.88246L17.1658 5.15358L17.2011 6.23751C17.2492 7.68292 17.2822 9.12887 17.3098 10.5743C17.318 10.9358 17.3213 11.2973 17.3269 11.6588V11.6756V11.7045L17.3253 11.7633L17.3213 11.8809L17.3103 12.1155C17.3081 12.1939 17.297 12.2718 17.2866 12.3496C17.2762 12.4275 17.2647 12.5058 17.2529 12.5837C17.2331 12.74 17.1895 12.8929 17.152 13.0464C17.1312 13.1227 17.115 13.2005 17.0876 13.2746C17.0621 13.3491 17.0356 13.4242 17.0087 13.4984C16.5707 14.689 15.6814 15.6945 14.5523 16.2912C14.4095 16.3625 14.266 16.4332 14.1188 16.4958C13.9693 16.5535 13.8187 16.608 13.6676 16.6597C13.5136 16.7033 13.3581 16.7435 13.2025 16.7805C13.0465 16.8143 12.8876 16.8355 12.7293 16.859C12.6504 16.8721 12.571 16.8769 12.4916 16.8819L12.2533 16.8943C12.0646 16.9035 12.0117 16.8993 11.9124 16.9003L11.363 16.9015L9.16545 16.8906C8.43292 16.8819 7.70041 16.8769 6.9679 16.8649L4.93084 16.8296C4.82219 16.8296 4.71738 16.8459 4.61424 16.8828C4.51109 16.9193 4.40959 16.9744 4.32023 17.0489C4.23033 17.123 4.15421 17.215 4.09463 17.3162C4.03672 17.4186 3.997 17.5313 3.97881 17.6571L3.97383 17.6805L3.97107 17.6924C3.97107 17.6924 3.96997 17.6957 3.96942 17.6996V17.7164L3.96391 17.852L3.95288 18.123L3.93026 18.6653L3.88447 19.7498C3.84974 20.4728 3.81774 21.1957 3.77692 21.9187C3.73996 22.6417 3.69527 23.3646 3.65226 24.0876C3.60482 24.8106 3.55959 25.5336 3.50608 26.2572C3.48071 26.6186 3.45423 26.9801 3.42556 27.3417L3.35605 28.2606C3.35054 28.4679 3.38473 28.6798 3.4603 28.8856C3.53587 29.0912 3.65446 29.2884 3.80781 29.4642C3.96059 29.6406 4.15144 29.7914 4.36767 29.908L4.44932 29.9531C4.47743 29.9656 4.50666 29.9759 4.53536 29.9886L4.62251 30.0255C4.65119 30.0402 4.68262 30.0442 4.71242 30.0545L4.804 30.0822C4.81943 30.0865 4.83487 30.0925 4.85032 30.0963L4.89775 30.1051L4.99373 30.1242L5.04228 30.1345C5.0511 30.1362 5.05607 30.1382 5.06875 30.1392L5.10294 30.1432C5.83548 30.2178 6.56855 30.2983 7.30106 30.3832C8.76664 30.5559 10.2322 30.743 11.6984 30.9849C10.235 31.2402 8.77105 31.4404 7.30712 31.6267C6.57515 31.7182 5.84319 31.8052 5.11123 31.8869L5.07704 31.8907C5.06654 31.8923 5.04889 31.8923 5.03511 31.8935L4.9463 31.8972L4.76758 31.9038L4.67766 31.906C4.6479 31.906 4.6181 31.9032 4.58831 31.9015L4.40849 31.8895C4.34836 31.8842 4.28769 31.8837 4.22813 31.8728L4.04886 31.8434C3.98928 31.8331 3.92859 31.8232 3.86903 31.8107L3.69197 31.7638C3.2198 31.6364 2.76751 31.417 2.36484 31.1236C1.96161 30.8296 1.61136 30.4566 1.335 30.0282C1.0581 29.5999 0.866151 29.1104 0.766312 28.6018L0.745903 28.5066C0.739284 28.4745 0.736525 28.4423 0.732112 28.4108L0.708946 28.2176L0.698466 28.1206L0.690192 28.0329L0.678608 27.8974L0.631724 27.3557C0.599731 26.9944 0.569944 26.6334 0.54126 26.2718C0.481138 25.5495 0.428736 24.8264 0.374679 24.104C0.325036 23.3815 0.273186 22.6585 0.22961 21.9362C0.182172 21.2137 0.14301 20.4907 0.10164 19.7682L0.0453773 18.6845L0.0177975 18.1421L0.00455918 17.871L-0.00150835 17.7355V17.7186L-0.00205994 17.6912V17.6353L-0.00040516 17.5231C0.00455918 16.927 0.120946 16.3216 0.345997 15.7566C0.569944 15.1909 0.906968 14.671 1.32287 14.223C1.73986 13.7754 2.24073 13.4003 2.79894 13.1265C3.35661 12.8527 3.96997 12.6806 4.59107 12.6213L4.82439 12.6049C4.89885 12.6 4.99429 12.5951 5.02572 12.5946L5.30042 12.5859L5.84981 12.5712L6.94804 12.5429C7.68055 12.5244 8.41252 12.5129 9.14503 12.4971L11.342 12.4661L11.8914 12.4618C11.9747 12.4607 12.1055 12.4618 12.0994 12.4563C12.1115 12.4547 12.1231 12.4541 12.1352 12.4541C12.1474 12.4541 12.1595 12.4558 12.1705 12.4509C12.1926 12.4438 12.2163 12.4449 12.2389 12.4394C12.2605 12.4307 12.2819 12.4253 12.3051 12.422C12.3255 12.4106 12.3465 12.4024 12.3686 12.3975C12.389 12.3872 12.4077 12.3741 12.4303 12.3676C12.512 12.3251 12.5875 12.2663 12.6504 12.1966C12.7139 12.1269 12.7613 12.0464 12.796 11.9631C12.7999 11.9527 12.8048 11.9424 12.8103 11.9321C12.8175 11.9222 12.8153 11.9097 12.8192 11.8994C12.8225 11.8771 12.8385 11.8575 12.8368 11.833C12.838 11.8215 12.8401 11.8101 12.8429 11.7987C12.8456 11.7872 12.8506 11.7763 12.8484 11.7638C12.8484 11.7518 12.8484 11.7399 12.8501 11.7279L12.8529 11.7099L12.8546 11.7007L12.8556 11.6958V11.6789C12.8578 11.3174 12.8578 10.9559 12.8628 10.5944C12.8766 9.14848 12.8964 7.70252 12.9307 6.25711L12.956 5.17264L12.9638 4.90153L12.9686 4.79644L12.9753 4.68268L12.9919 4.45511C13.0261 4.15242 13.0807 3.85026 13.1695 3.55737C13.3421 2.97105 13.6245 2.41846 13.9963 1.93938C14.367 1.45975 14.8238 1.04982 15.3389 0.73297C15.8535 0.416667 16.4289 0.194003 17.0218 0.0856655C17.1695 0.0589893 17.3196 0.0421125 17.4681 0.024147C17.5426 0.0138032 17.6169 0.0116255 17.6914 0.00890349L17.9149 0.00291497L18.0262 0.00128174H18.0539H18.0715L18.1056 0.00291497L18.2431 0.00835908L18.5176 0.0208806C19.2502 0.0540895 19.9829 0.0872986 20.7152 0.127041C22.1804 0.203258 23.6459 0.290909 25.1109 0.393802C25.4772 0.4183 25.8435 0.444977 26.2097 0.472741L27.3085 0.557125L27.8579 0.601223L28.1326 0.623542L28.2898 0.637697L28.4812 0.658386C28.9887 0.720449 29.4835 0.871795 29.9252 1.10644C30.3671 1.34054 30.7598 1.64975 31.077 2.0156C31.3953 2.38035 31.6392 2.79956 31.7957 3.24215C31.9535 3.68421 32.0235 4.14968 32.0064 4.60209L31.9992 4.77141C31.9987 4.8019 31.9954 4.8215 31.9932 4.84491L31.9856 4.91296L31.9546 5.18408L31.8912 5.72631C31.7169 7.1728 31.5288 8.61931 31.2851 10.0664L31.2876 10.0653Z" fill="#28A745"/>
<path d="M24.693 20.5897C24.4916 20.6953 24.2894 20.7956 24.0912 20.9045C23.8909 21.0085 23.694 21.1184 23.4982 21.2277C23.1072 21.4483 22.7227 21.6765 22.3498 21.917C21.9753 22.1549 21.6128 22.4075 21.2605 22.6678C21.0839 22.7974 20.913 22.9334 20.742 23.0674C20.5743 23.2061 20.4066 23.3428 20.2455 23.4866C19.9211 23.7701 19.6113 24.0658 19.321 24.375C19.0331 24.6837 18.7627 24.9962 18.524 25.3289L18.433 25.4519C18.4032 25.4933 18.3762 25.5361 18.3474 25.5787C18.2918 25.6642 18.2334 25.7465 18.1786 25.832L18.0215 26.091C17.9945 26.1335 17.9702 26.1776 17.9465 26.2222L17.8748 26.3544L17.8031 26.4863C17.7799 26.5309 17.7593 26.5766 17.7374 26.6212C17.6945 26.7117 17.6475 26.7992 17.6072 26.8907L17.4881 27.1651C17.449 27.2565 17.4164 27.3514 17.38 27.4439C17.2426 27.818 17.1203 28.1964 17.0302 28.5882C16.9387 28.9791 16.8588 29.3728 16.8063 29.7772L16.7849 29.928L16.7677 30.0804L16.7336 30.386C16.7148 30.5977 16.6922 30.8083 16.6767 31.0196C16.6635 31.2308 16.6436 31.4409 16.6359 31.6522L16.6193 31.968C16.6139 32.073 16.6122 32.1785 16.6083 32.2837C16.5824 33.1259 16.5951 33.9674 16.6404 34.8239C16.6595 35.2507 16.6872 35.6835 16.7165 36.1179L16.8113 37.4366C16.8427 37.8791 16.8776 38.3267 16.9051 38.7764L16.9944 40.077L17.0221 40.3922L17.0364 40.5374L17.0434 40.6073L17.0519 40.6724C17.0733 40.8452 17.0998 40.9873 17.1307 41.0955C17.1614 41.2044 17.194 41.2784 17.2277 41.3318C17.2378 41.3438 17.2443 41.3578 17.253 41.3693C17.2631 41.3797 17.2691 41.3927 17.2795 41.4031C17.2846 41.4079 17.2896 41.4134 17.294 41.4188C17.2984 41.4244 17.3011 41.4298 17.3087 41.4369C17.322 41.4499 17.3332 41.4647 17.3458 41.4783C17.449 41.5861 17.5824 41.6732 17.7252 41.7281C17.8687 41.7826 18.0176 41.8061 18.1522 41.7946L19.4635 41.7537L20.8153 41.7178C22.618 41.6694 24.4212 41.6345 26.2236 41.6056L27.5757 41.5877L28.2519 41.5795L28.3336 41.5784C28.3414 41.5767 28.3484 41.5757 28.3561 41.5746C28.3711 41.5724 28.3859 41.5712 28.4009 41.572C28.4163 41.5746 28.4295 41.5664 28.4439 41.5642C28.4583 41.5609 28.4721 41.5594 28.4869 41.5583C28.5971 41.5332 28.6998 41.4831 28.792 41.4134C28.8824 41.3433 28.9646 41.2546 29.0114 41.1523C29.0612 41.0514 29.0908 40.9476 29.0953 40.8294C29.0965 40.8222 29.0975 40.8145 29.0986 40.8075V40.7275V40.5609V40.2273L29.0965 39.5598L29.1046 36.8905L29.1279 34.2213C29.1306 34.1008 29.1274 34.0345 29.1389 33.8086C29.1438 33.7133 29.1499 33.6181 29.1564 33.5233C29.1637 33.4286 29.182 33.3334 29.1958 33.2386C29.2112 33.1439 29.226 33.0491 29.2448 32.9554C29.2674 32.8623 29.2916 32.7694 29.3164 32.6768C29.3623 32.4901 29.4312 32.3103 29.5003 32.1313C29.5178 32.0865 29.5349 32.042 29.5537 31.9979L29.6155 31.8683C29.6574 31.7817 29.7005 31.6962 29.744 31.6108C29.765 31.5678 29.7898 31.5264 29.8146 31.4856L29.8895 31.3631C29.9404 31.2819 29.9905 31.2003 30.0452 31.122C30.1019 31.0452 30.1598 30.969 30.2189 30.8939C30.2778 30.8186 30.3359 30.7425 30.402 30.6735C30.5322 30.5334 30.6591 30.3908 30.8053 30.2671C31.3718 29.7554 32.0541 29.3695 32.7893 29.1478C32.9747 29.1 33.1605 29.0499 33.3492 29.0172C33.4436 29.0025 33.5385 28.989 33.6334 28.9763L33.7756 28.9584C33.823 28.9534 33.8704 28.9525 33.9179 28.9497C34.0128 28.9447 34.1076 28.9416 34.2025 28.9389L34.2736 28.9372H34.309H34.3315L34.4161 28.9389L34.754 28.9464C35.656 28.9649 36.5572 28.9906 37.4591 29.0152C38.3611 29.0401 39.2623 29.0706 40.1643 29.1005L40.8404 29.1256L41.1785 29.1382L41.3473 29.1441L41.3899 29.1457H41.4107L41.4191 29.1463H41.4527C41.633 29.1566 41.8124 29.1337 41.9872 29.0673L42.0042 29.0624L42.0197 29.0543L42.0512 29.0384C42.0721 29.0281 42.0942 29.0194 42.1162 29.0102C42.1356 28.997 42.156 28.9845 42.1763 28.9726C42.1968 28.9601 42.2205 28.9514 42.2377 28.935C42.2735 28.904 42.3193 28.8821 42.3522 28.8462C42.3705 28.83 42.3892 28.8147 42.4086 28.799C42.4268 28.7826 42.4412 28.7629 42.4588 28.7455C42.5928 28.6029 42.7031 28.4313 42.7605 28.2361C42.766 28.2109 42.7727 28.1864 42.7798 28.162L42.7913 28.1251C42.7958 28.1124 42.7953 28.0994 42.7975 28.0862C42.8008 28.0601 42.8052 28.0346 42.8108 28.0084L42.8146 27.9888C42.8158 27.9805 42.8178 27.9796 42.8185 27.9626L42.8228 27.8793L42.8576 27.212L42.9315 25.8771C43.0335 24.0969 43.1487 22.3172 43.2818 20.537C43.3486 19.6469 43.4185 18.7568 43.4942 17.8667L43.5086 17.6994L43.5118 17.6575C43.5129 17.644 43.5146 17.6281 43.5146 17.6199L43.5179 17.5601L43.5267 17.4387L43.5289 17.4082L43.5272 17.3783L43.5244 17.3174C43.5228 17.2763 43.5216 17.2357 43.5212 17.1943L43.5046 17.0724C43.4979 17.0319 43.4974 16.9891 43.4864 16.9494L43.4572 16.8278L43.4433 16.7662C43.4378 16.7462 43.4295 16.7265 43.423 16.707L43.3816 16.5867C43.3701 16.5448 43.3481 16.5089 43.331 16.469L43.2779 16.351L43.2123 16.2388C43.189 16.2017 43.1715 16.1605 43.1434 16.1266L43.0661 16.0194C43.053 16.0015 43.0408 15.9823 43.027 15.9655L42.9828 15.916C42.7517 15.6437 42.4533 15.4151 42.108 15.2567C42.0644 15.2376 42.0197 15.2224 41.9757 15.2049C41.9309 15.1887 41.8868 15.1674 41.8405 15.1548L41.7009 15.1168C41.6541 15.1037 41.6072 15.0879 41.5586 15.0825L41.413 15.0575L41.339 15.045L41.2547 15.0363L40.9165 14.9997C40.0147 14.899 39.1128 14.7994 38.2104 14.6753C39.1113 14.5429 40.0125 14.4352 40.9132 14.3263L41.2514 14.2871L41.3358 14.2773L41.4306 14.2719L41.6231 14.2621C41.6877 14.2566 41.7516 14.2615 41.8169 14.2642L42.0115 14.2751C42.0766 14.2794 42.1405 14.2925 42.2051 14.3013C42.2695 14.3116 42.3351 14.3203 42.3998 14.3334C42.915 14.4427 43.412 14.6747 43.8415 15.0067L43.9229 15.0688C43.9493 15.0901 43.9735 15.1141 43.9989 15.1363L44.15 15.2752C44.2025 15.3204 44.2443 15.3737 44.2918 15.4238L44.4296 15.5784L44.5531 15.7445C44.5929 15.8011 44.6376 15.8549 44.6711 15.916L44.7777 16.0957C44.7948 16.1261 44.8136 16.1555 44.8294 16.1865L44.8742 16.2813L44.9624 16.4729C44.9929 16.5366 45.0117 16.6046 45.0365 16.6705C45.0596 16.7375 45.0833 16.8039 45.1042 16.8719L45.1538 17.0783L45.1776 17.1823L45.1891 17.2346L45.1964 17.2875L45.2239 17.4992L45.2367 17.6057L45.2454 17.6935L45.2615 17.8602C45.3453 18.7497 45.4237 19.6387 45.4986 20.5283C45.6481 22.3068 45.7799 24.0859 45.8991 25.865L45.9858 27.1994L46.0269 27.8664L46.0321 27.9497C46.0331 27.9601 46.0331 27.9867 46.0331 28.0069V28.0705C46.0331 28.1553 46.0326 28.2403 46.0309 28.3258C46.0292 28.3683 46.0309 28.4114 46.026 28.4537L46.0134 28.5817C46.0039 28.6671 45.9945 28.7521 45.9835 28.8375C45.7761 30.2035 44.904 31.4666 43.6542 32.1617C43.0314 32.5101 42.3193 32.7235 41.5995 32.7682L41.4643 32.7774L41.4091 32.7806L41.3666 32.7829L41.1978 32.7906L40.8596 32.8058L40.1835 32.8369C39.2822 32.8749 38.3808 32.9137 37.4795 32.9467C36.5783 32.9795 35.677 33.0138 34.7756 33.0399L34.4375 33.0508L34.353 33.0534H34.3338L34.3273 33.0557L34.3139 33.0583C34.2964 33.0623 34.2786 33.0644 34.261 33.0661C34.2521 33.067 34.2434 33.0661 34.2345 33.0681C34.2263 33.0709 34.218 33.0736 34.2097 33.0764C34.1931 33.0812 34.1767 33.0851 34.1596 33.0877C34.1551 33.0885 34.1512 33.0888 34.1468 33.09L34.1353 33.0955C34.1275 33.0988 34.1198 33.1019 34.1116 33.1052C34.0955 33.1112 34.0795 33.1155 34.0635 33.1187C33.9406 33.1705 33.8291 33.2484 33.7387 33.3453C33.7116 33.3653 33.6978 33.3975 33.6752 33.4209C33.6625 33.4319 33.6565 33.4481 33.6481 33.4618C33.6399 33.476 33.6306 33.489 33.6207 33.5016C33.6129 33.5157 33.6084 33.5315 33.6001 33.5451C33.5963 33.5522 33.5923 33.5588 33.5881 33.5658C33.5836 33.5723 33.5788 33.5787 33.5776 33.587C33.5731 33.6022 33.5675 33.6169 33.561 33.631C33.5577 33.6383 33.5544 33.6453 33.5505 33.6517C33.5483 33.6595 33.5478 33.667 33.5455 33.6747C33.539 33.7051 33.5235 33.7325 33.5235 33.7639C33.5214 33.7792 33.5174 33.7938 33.5125 33.8086C33.512 33.8245 33.5125 33.8402 33.5109 33.8555C33.5109 33.8712 33.5042 33.8854 33.5059 33.9016C33.5076 33.918 33.5086 33.9338 33.5081 33.9495C33.5047 33.9458 33.5086 34.1016 33.5109 34.204L33.5593 36.8731L33.5931 39.5424L33.598 40.2096L33.6001 40.5435L33.6013 40.7101V40.7972L33.5974 40.9421C33.5797 41.7135 33.3834 42.492 33.0237 43.1839C32.6675 43.8785 32.1451 44.4812 31.5201 44.9493C30.8952 45.4171 30.1605 45.7524 29.3866 45.9032C29.2894 45.9196 29.1924 45.9354 29.0953 45.9495C28.9981 45.9624 28.9007 45.9801 28.8035 45.9831C28.7058 45.9898 28.6081 45.9946 28.5107 45.9985L28.3644 46.0038H28.2767L27.6005 46.0022L26.2481 45.9963C24.4448 45.9838 22.6416 45.9658 20.8386 45.9337L19.486 45.9102L18.0927 45.8782C17.7092 45.8667 17.3298 45.8123 16.9646 45.717C16.5989 45.6218 16.2476 45.4846 15.916 45.3131C15.2536 44.97 14.6684 44.4844 14.2171 43.89C14.1614 43.8154 14.1079 43.7387 14.055 43.6624C14.0021 43.5863 13.9508 43.4985 13.9005 43.4163C13.8503 43.3324 13.8068 43.2454 13.7615 43.1588C13.7179 43.0722 13.6798 42.9834 13.6407 42.8959C13.4907 42.5421 13.3963 42.1865 13.3379 41.8599C13.2795 41.5321 13.2547 41.2311 13.2425 40.9605L13.238 40.8593L13.2353 40.7624C13.233 40.6965 13.232 40.636 13.2314 40.5746L13.2304 40.2228L13.2513 38.8553L13.2805 37.5264C13.2976 36.6347 13.3246 35.7255 13.3782 34.8011C13.4058 34.3399 13.4449 33.8739 13.4902 33.4084C13.5167 33.1748 13.5387 32.9424 13.5718 32.709L13.6187 32.3594C13.6347 32.2428 13.654 32.1268 13.6716 32.0104C13.7411 31.5454 13.8299 31.0832 13.9265 30.6249C13.9744 30.3955 14.0295 30.1681 14.0809 29.94C14.1084 29.8245 14.1399 29.7059 14.1697 29.5894L14.2155 29.4142L14.2662 29.2389C14.3975 28.7722 14.5575 28.3074 14.7433 27.8511C14.9265 27.3949 15.1449 26.9475 15.3898 26.5162C15.6331 26.0839 15.9111 25.6695 16.2166 25.28L16.3314 25.134C16.3689 25.0848 16.408 25.037 16.4495 24.9908L16.6922 24.7115C16.775 24.6206 16.8609 24.5325 16.946 24.4436C16.9888 24.3994 17.0302 24.3543 17.0744 24.3119L17.2079 24.1855C17.2977 24.1024 17.3833 24.0152 17.4765 23.9368L17.7528 23.6988C17.8444 23.62 17.9432 23.5487 18.0375 23.4734C18.1325 23.3988 18.2277 23.325 18.3254 23.2574C18.7093 22.9748 19.1103 22.7216 19.5174 22.4858C19.9251 22.2509 20.341 22.0358 20.7652 21.844C21.1887 21.6508 21.6168 21.4743 22.0515 21.3209C22.9201 21.0115 23.8033 20.7677 24.6964 20.5934L24.693 20.5897Z" fill="#28A745"/>
<path d="M13.0085 26.2015C12.9561 26.0561 12.9053 25.9096 12.8591 25.7615C12.8121 25.6134 12.7713 25.4638 12.7288 25.3134C12.7084 25.2384 12.6897 25.1626 12.6715 25.0865C12.6527 25.0108 12.6351 24.9347 12.6191 24.8578L12.57 24.6276L12.5269 24.3956C12.4172 23.775 12.3697 23.1352 12.3857 22.4831C12.4006 22.1576 12.4221 21.8276 12.4768 21.4982C12.4988 21.3326 12.5336 21.1677 12.5678 21.0023C12.5832 20.919 12.6075 20.8379 12.6279 20.7552C12.6499 20.6729 12.6692 20.5896 12.6941 20.5074C12.8894 19.8508 13.1822 19.2014 13.5772 18.6009L13.7328 18.3804C13.7851 18.3068 13.8365 18.2322 13.8949 18.1631C14.0091 18.0233 14.12 17.8784 14.2452 17.7478L14.4311 17.548C14.4945 17.4827 14.5612 17.4221 14.6268 17.3586C14.6931 17.2965 14.7587 17.2322 14.8266 17.1718L15.035 16.9965C15.5971 16.5337 16.2177 16.15 16.862 15.8429C16.9425 15.8042 17.0231 15.7634 17.1042 15.7275L17.3484 15.6235L17.5944 15.5217C17.6761 15.4891 17.7567 15.4624 17.8376 15.4324C17.9999 15.3752 18.162 15.3126 18.3265 15.2615L18.5724 15.1814C18.6541 15.1542 18.7401 15.133 18.8235 15.1084L19.0767 15.0383L19.3282 14.9762C19.4969 14.9333 19.6624 14.8984 19.8296 14.8618C20.1627 14.7912 20.4914 14.7356 20.8175 14.6822C22.1169 14.4786 23.3493 14.3816 24.4623 14.219C24.5997 14.1976 24.7382 14.1769 24.8717 14.1536L25.2584 14.0779C25.3228 14.0649 25.3874 14.0567 25.4513 14.0403L25.6434 13.9951C25.7707 13.9635 25.8994 13.9385 26.0256 13.9031C26.2781 13.8301 26.5319 13.7649 26.7818 13.6794L26.9699 13.6196L27.0636 13.589L27.1568 13.5548L27.5287 13.4181C29.5045 12.657 31.364 11.4724 33.1146 10.0602L33.1417 10.0384C34.0976 9.2675 35.5059 9.40742 36.2874 10.3509C36.5682 10.69 36.7292 11.0842 36.7767 11.4892L36.7938 11.6324L36.8076 11.7571L36.8313 11.9983C36.8462 12.1572 36.8594 12.3146 36.8715 12.4714C36.896 12.7844 36.9123 13.0953 36.9245 13.4061C36.9481 14.0273 36.9571 14.6479 36.9405 15.2697C36.9261 15.8913 36.8943 16.5136 36.8363 17.1374C36.8086 17.4495 36.7751 17.7614 36.736 18.0739C36.6961 18.3858 36.6476 18.6989 36.5969 19.0113C36.3872 20.2613 36.0689 21.5157 35.5898 22.7493C35.3426 23.3639 35.0651 23.9758 34.7193 24.5671C34.3805 25.1598 33.979 25.7343 33.5146 26.2694C33.2835 26.5379 33.0304 26.7921 32.7666 27.0355C32.6299 27.1542 32.4979 27.2751 32.3546 27.3861C32.2835 27.4421 32.2146 27.4998 32.141 27.5532L31.9205 27.7122L31.8647 27.7519L31.804 27.7922L31.6828 27.8727C31.6022 27.9256 31.5178 27.9828 31.4466 28.0181L31.0021 28.2588C30.8531 28.3421 30.7075 28.4063 30.5613 28.4759C30.4152 28.544 30.2702 28.6153 30.1234 28.6802C28.9435 29.1934 27.7218 29.5653 26.4857 29.7983C25.2483 30.0259 23.9945 30.1087 22.7629 30.0455C21.5316 29.9786 20.3193 29.7679 19.1829 29.3775C20.3821 29.284 21.5384 29.1053 22.6514 28.8277C23.7641 28.5527 24.8335 28.1875 25.8485 27.7393C26.8617 27.2864 27.8221 26.754 28.7075 26.1518C28.8184 26.0768 28.9246 25.9963 29.0333 25.9193C29.1403 25.8415 29.253 25.7647 29.3479 25.6852L29.645 25.4528C29.7003 25.4131 29.7306 25.3788 29.767 25.3433L29.8205 25.2912L29.8476 25.2655L29.8767 25.2351C30.0357 25.0756 30.1852 24.9062 30.328 24.7309C30.467 24.5507 30.6 24.365 30.7245 24.1707C31.2182 23.3891 31.5857 22.4808 31.8487 21.5102C32.1146 20.5385 32.2818 19.5073 32.3849 18.4556C32.4097 18.192 32.4323 17.928 32.4478 17.6612C32.4654 17.395 32.4809 17.1282 32.4897 16.8605C32.5001 16.5926 32.5046 16.3236 32.5079 16.0541C32.5117 15.7846 32.5122 15.5152 32.5079 15.2446C32.4979 14.704 32.4821 14.1622 32.4483 13.6234C32.4312 13.3538 32.4108 13.0849 32.3897 12.8187C32.3787 12.6859 32.3667 12.5536 32.3534 12.4234L32.3331 12.2313L32.3131 12.0658L35.9753 13.4943C34.9553 14.3192 33.8705 15.0932 32.6955 15.7634C32.4064 15.9366 32.1014 16.089 31.8019 16.2485C31.6501 16.3258 31.4952 16.3987 31.3424 16.4739L31.1118 16.5854L30.8768 16.6906L30.4041 16.8946L29.9221 17.0831C29.8416 17.1135 29.7622 17.1473 29.6805 17.1751L29.4349 17.2605C29.2706 17.3161 29.109 17.376 28.9418 17.4254L28.4415 17.5725L28.3164 17.6089L28.1895 17.6411L27.9358 17.7042C27.7657 17.7445 27.5988 17.7924 27.4261 17.8235L26.9115 17.9243C26.74 17.9569 26.5651 17.9786 26.3924 18.0059L26.1326 18.0445C26.0464 18.0581 25.9583 18.0641 25.8711 18.0744L25.3483 18.1245C25.1778 18.137 25.0112 18.1464 24.8441 18.1561C23.5179 18.2193 22.2985 18.1729 21.1583 18.1975C21.0177 18.2018 20.8749 18.204 20.7358 18.2099C20.5984 18.2171 20.4561 18.221 20.3215 18.2306C20.1853 18.2389 20.048 18.2459 19.9156 18.2596L19.7149 18.2769L19.5183 18.3005C19.3877 18.3139 19.2547 18.3352 19.1218 18.3548C18.9878 18.3728 18.8576 18.4005 18.7241 18.4229C18.6585 18.4353 18.5901 18.4452 18.5261 18.4593L18.337 18.5023L18.1466 18.5437C18.0838 18.5583 18.0229 18.5775 17.9613 18.5938C16.969 18.86 16.0693 19.3038 15.3235 19.988L15.1878 20.1209C15.1432 20.166 15.0946 20.2084 15.0538 20.2569C14.9694 20.3522 14.8795 20.4453 14.8006 20.5482L14.6776 20.7001L14.5629 20.8602L14.505 20.9409C14.4862 20.9679 14.469 20.9963 14.4509 21.0242L14.3417 21.1922C14.0609 21.6491 13.8309 22.1576 13.6428 22.6965C13.2744 23.7787 13.0923 24.9738 13.0085 26.2035V26.2015Z" fill="#28A745"/>
</g>
<path d="M146.79 25.9914C145.173 25.9914 143.762 25.6745 142.555 25.0407C141.368 24.407 140.447 23.4972 139.793 22.3114C139.138 21.1256 138.811 19.7252 138.811 18.1101C138.811 16.9038 138.995 15.8203 139.363 14.8594C139.731 13.8985 140.263 13.0807 140.959 12.406C141.675 11.7109 142.524 11.1896 143.506 10.842C144.488 10.474 145.582 10.29 146.79 10.29C148.406 10.29 149.807 10.6069 150.994 11.2407C152.201 11.8745 153.132 12.774 153.787 13.9394C154.462 15.1047 154.799 16.495 154.799 18.1101C154.799 19.3367 154.605 20.4305 154.216 21.3914C153.848 22.3523 153.316 23.1803 152.62 23.8754C151.925 24.5705 151.076 25.1021 150.073 25.4701C149.091 25.8176 147.997 25.9914 146.79 25.9914ZM146.79 22.5261C147.465 22.5261 148.048 22.3625 148.539 22.0354C149.03 21.7083 149.419 21.2278 149.705 20.5941C149.991 19.9398 150.135 19.1118 150.135 18.1101C150.135 16.6176 149.828 15.5238 149.214 14.8287C148.6 14.1132 147.792 13.7554 146.79 13.7554C146.135 13.7554 145.552 13.9087 145.04 14.2154C144.549 14.5221 144.161 15.0025 143.874 15.6567C143.608 16.2905 143.475 17.1083 143.475 18.1101C143.475 19.6025 143.782 20.7167 144.396 21.4527C145.01 22.1683 145.808 22.5261 146.79 22.5261Z" fill="#28A745"/>
<path d="M132.526 25.9913C130.889 25.9913 129.457 25.6744 128.229 25.0406C127.022 24.3864 126.092 23.4664 125.437 22.2806C124.782 21.0948 124.455 19.6944 124.455 18.0793C124.455 16.8731 124.639 15.7895 125.007 14.8286C125.376 13.8677 125.907 13.0499 126.603 12.3753C127.319 11.7006 128.178 11.1895 129.181 10.8419C130.183 10.4739 131.298 10.2899 132.526 10.2899C133.16 10.2899 133.835 10.3717 134.551 10.5352C135.267 10.6784 135.973 10.9339 136.669 11.3019C137.078 11.4859 137.354 11.7517 137.497 12.0992C137.661 12.4264 137.722 12.7739 137.681 13.1419C137.641 13.4895 137.508 13.8064 137.283 14.0926C137.078 14.3584 136.812 14.5424 136.485 14.6446C136.157 14.7264 135.789 14.6651 135.38 14.4606C134.991 14.2357 134.582 14.0722 134.152 13.9699C133.743 13.8677 133.354 13.8166 132.986 13.8166C132.372 13.8166 131.83 13.9188 131.36 14.1233C130.889 14.3073 130.49 14.5833 130.163 14.9513C129.856 15.2988 129.61 15.7384 129.426 16.2699C129.263 16.8015 129.181 17.4148 129.181 18.1099C129.181 19.4593 129.508 20.5224 130.163 21.2993C130.838 22.0557 131.779 22.4339 132.986 22.4339C133.354 22.4339 133.743 22.3931 134.152 22.3113C134.561 22.2091 134.971 22.0455 135.38 21.8206C135.789 21.6162 136.157 21.5651 136.485 21.6673C136.812 21.7695 137.068 21.9637 137.252 22.2499C137.456 22.5157 137.569 22.8326 137.589 23.2006C137.63 23.5482 137.569 23.8957 137.405 24.2433C137.262 24.5704 136.996 24.8259 136.607 25.0099C135.912 25.3575 135.216 25.6028 134.521 25.7459C133.825 25.9095 133.16 25.9913 132.526 25.9913Z" fill="#28A745"/>
<path d="M119.312 25.8993C118.555 25.8993 117.972 25.6847 117.563 25.2554C117.175 24.8056 116.98 24.182 116.98 23.3847V12.8967C116.98 12.0789 117.175 11.4554 117.563 11.0261C117.972 10.5763 118.555 10.3514 119.312 10.3514C120.049 10.3514 120.612 10.5763 121 11.0261C121.41 11.4554 121.614 12.0789 121.614 12.8967V23.3847C121.614 24.182 121.42 24.8056 121.031 25.2554C120.642 25.6847 120.069 25.8993 119.312 25.8993ZM119.312 7.83672C118.453 7.83672 117.788 7.6425 117.318 7.25405C116.868 6.84517 116.643 6.27272 116.643 5.53672C116.643 4.78028 116.868 4.20783 117.318 3.81939C117.788 3.4105 118.453 3.20605 119.312 3.20605C120.172 3.20605 120.826 3.4105 121.277 3.81939C121.727 4.20783 121.952 4.78028 121.952 5.53672C121.952 6.27272 121.727 6.84517 121.277 7.25405C120.826 7.6425 120.172 7.83672 119.312 7.83672Z" fill="#28A745"/>
<path d="M104.11 25.9911C102.8 25.9911 101.644 25.6742 100.642 25.0405C99.6599 24.4067 98.8927 23.4969 98.3403 22.3111C97.7879 21.1253 97.5117 19.7249 97.5117 18.1098C97.5117 16.4947 97.7879 15.1045 98.3403 13.9391C98.8927 12.7738 99.6599 11.8743 100.642 11.2405C101.644 10.6067 102.8 10.2898 104.11 10.2898C105.296 10.2898 106.34 10.576 107.24 11.1485C108.161 11.7209 108.785 12.4671 109.112 13.3871H108.774V6.11915C108.774 5.34226 108.969 4.75959 109.357 4.37115C109.746 3.96226 110.319 3.75781 111.076 3.75781C111.813 3.75781 112.385 3.96226 112.795 4.37115C113.204 4.75959 113.408 5.34226 113.408 6.11915V23.5685C113.408 24.3249 113.204 24.9076 112.795 25.3165C112.406 25.7253 111.843 25.9298 111.107 25.9298C110.37 25.9298 109.797 25.7253 109.388 25.3165C108.999 24.9076 108.805 24.3249 108.805 23.5685V21.4831L109.143 22.6791C108.856 23.6809 108.242 24.4885 107.301 25.1018C106.381 25.6947 105.317 25.9911 104.11 25.9911ZM105.491 22.5258C106.166 22.5258 106.749 22.3622 107.24 22.0351C107.731 21.708 108.12 21.2276 108.406 20.5938C108.693 19.9396 108.836 19.1116 108.836 18.1098C108.836 16.6173 108.529 15.5236 107.915 14.8285C107.301 14.1129 106.493 13.7551 105.491 13.7551C104.836 13.7551 104.253 13.9085 103.741 14.2151C103.25 14.5218 102.862 15.0022 102.575 15.6565C102.309 16.2902 102.176 17.108 102.176 18.1098C102.176 19.6022 102.483 20.7165 103.097 21.4525C103.711 22.168 104.509 22.5258 105.491 22.5258Z" fill="#28A745"/>
<path d="M89.2319 25.9913C87.4519 25.9913 85.9175 25.6744 84.6286 25.0406C83.3601 24.3864 82.3781 23.4766 81.6825 22.3113C81.0073 21.1255 80.6698 19.7353 80.6698 18.1406C80.6698 16.5868 80.9971 15.2273 81.6518 14.0619C82.3065 12.8762 83.2169 11.9561 84.3831 11.3019C85.5697 10.6273 86.9098 10.2899 88.4033 10.2899C89.4876 10.2899 90.4696 10.4739 91.3494 10.8419C92.2291 11.1895 92.9861 11.7006 93.6203 12.3753C94.2545 13.0295 94.7353 13.8371 95.0627 14.7979C95.39 15.7384 95.5537 16.7913 95.5537 17.9566C95.5537 18.3451 95.4309 18.6415 95.1854 18.8459C94.9399 19.0299 94.5819 19.1219 94.1113 19.1219H84.4751V16.7299H92.2086L91.7176 17.1593C91.7176 16.3211 91.5949 15.6259 91.3494 15.0739C91.1039 14.5015 90.7458 14.0722 90.2753 13.7859C89.8252 13.4997 89.2626 13.3566 88.5874 13.3566C87.8304 13.3566 87.186 13.5304 86.654 13.8779C86.1221 14.2255 85.7129 14.7264 85.4265 15.3806C85.1401 16.0348 84.9968 16.8219 84.9968 17.7419V17.9873C84.9968 19.5411 85.3549 20.6859 86.0709 21.4219C86.8075 22.1579 87.8918 22.5259 89.3239 22.5259C89.8149 22.5259 90.3776 22.4646 91.0118 22.3419C91.646 22.2193 92.2393 22.0251 92.7917 21.7593C93.2623 21.5344 93.6817 21.4628 94.05 21.5446C94.4182 21.6059 94.7046 21.7695 94.9092 22.0353C95.1138 22.3011 95.2264 22.6077 95.2468 22.9553C95.2877 23.3028 95.2161 23.6504 95.032 23.9979C94.8479 24.3251 94.541 24.6011 94.1113 24.8259C93.4157 25.2144 92.6281 25.5006 91.7483 25.6846C90.889 25.8891 90.0502 25.9913 89.2319 25.9913Z" fill="#28A745"/>
<path d="M57.1326 25.9298C56.437 25.9298 55.905 25.7356 55.5368 25.3471C55.1685 24.9587 54.9844 24.4169 54.9844 23.7218V5.96581C54.9844 5.2707 55.1787 4.72892 55.5675 4.34048C55.9766 3.95203 56.529 3.75781 57.2246 3.75781C57.8384 3.75781 58.3192 3.88048 58.667 4.12581C59.0353 4.3507 59.3728 4.74937 59.6797 5.32181L66.7688 18.2631H65.7254L72.8144 5.32181C73.1213 4.74937 73.4486 4.3507 73.7964 4.12581C74.1647 3.88048 74.6455 3.75781 75.2388 3.75781C75.9344 3.75781 76.4663 3.95203 76.8346 4.34048C77.2233 4.72892 77.4177 5.2707 77.4177 5.96581V23.7218C77.4177 24.4169 77.2336 24.9587 76.8653 25.3471C76.497 25.7356 75.9651 25.9298 75.2695 25.9298C74.5739 25.9298 74.0317 25.7356 73.643 25.3471C73.2747 24.9587 73.0906 24.4169 73.0906 23.7218V11.3018H73.7658L68.0577 21.5138C67.8122 21.9022 67.5462 22.1987 67.2598 22.4031C66.9938 22.5871 66.6358 22.6791 66.1857 22.6791C65.7356 22.6791 65.3673 22.5769 65.0809 22.3725C64.7945 22.168 64.5387 21.8818 64.3137 21.5138L58.5442 11.2711H59.2808V23.7218C59.2808 24.4169 59.0966 24.9587 58.7284 25.3471C58.3806 25.7356 57.8486 25.9298 57.1326 25.9298Z" fill="#28A745"/>
<path d="M94.8113 42.7939C93.8207 42.7939 92.9674 42.609 92.2514 42.2394C91.5353 41.8697 90.9804 41.3449 90.5865 40.6651C90.2046 39.9854 90.0137 39.1804 90.0137 38.2501C90.0137 37.3438 90.1987 36.5507 90.5686 35.8709C90.9506 35.1911 91.4697 34.6605 92.1261 34.2788C92.7944 33.8853 93.5522 33.6885 94.3996 33.6885C95.6408 33.6885 96.6194 34.082 97.3354 34.8691C98.0634 35.6563 98.4274 36.7296 98.4274 38.0891V38.751H92.1619C92.329 40.3134 93.2241 41.0945 94.8471 41.0945C95.3365 41.0945 95.8257 41.0229 96.3151 40.8798C96.8044 40.7248 97.2519 40.4863 97.6577 40.1643L98.2842 41.6669C97.8665 42.0128 97.3415 42.287 96.7089 42.4898C96.0763 42.6926 95.4439 42.7939 94.8113 42.7939ZM94.4891 35.209C93.8327 35.209 93.3016 35.4118 92.8958 35.8173C92.4901 36.2227 92.2454 36.7714 92.1619 37.463H96.5657C96.518 36.7356 96.3151 36.181 95.957 35.7994C95.6109 35.4058 95.1216 35.209 94.4891 35.209Z" fill="#28A745"/>
<path d="M83.6267 42.6152V33.8675H85.8107V35.4059C86.2404 34.3684 87.1594 33.7959 88.5676 33.6886L89.2479 33.6349L89.3911 35.5312L88.1021 35.6564C86.6342 35.7995 85.9002 36.5508 85.9002 37.9104V42.6152H83.6267Z" fill="#28A745"/>
<path d="M77.3035 42.7939C76.3964 42.7939 75.6088 42.609 74.9405 42.2394C74.2721 41.8697 73.753 41.3449 73.3831 40.6651C73.013 39.9735 72.8281 39.1625 72.8281 38.2323C72.8281 37.302 73.013 36.497 73.3831 35.8173C73.753 35.1375 74.2721 34.6127 74.9405 34.243C75.6088 33.8734 76.3964 33.6885 77.3035 33.6885C78.2105 33.6885 78.9982 33.8734 79.6666 34.243C80.3348 34.6127 80.8539 35.1375 81.224 35.8173C81.5939 36.497 81.7789 37.302 81.7789 38.2323C81.7789 39.1625 81.5939 39.9735 81.224 40.6651C80.8539 41.3449 80.3348 41.8697 79.6666 42.2394C78.9982 42.609 78.2105 42.7939 77.3035 42.7939ZM77.3035 41.0945C77.9718 41.0945 78.5088 40.8559 78.9147 40.3789C79.3204 39.8899 79.5233 39.1744 79.5233 38.2323C79.5233 37.2781 79.3204 36.5686 78.9147 36.1035C78.5088 35.6265 77.9718 35.3879 77.3035 35.3879C76.6352 35.3879 76.0981 35.6265 75.6924 36.1035C75.2865 36.5686 75.0837 37.2781 75.0837 38.2323C75.0837 39.1744 75.2865 39.8899 75.6924 40.3789C76.0981 40.8559 76.6352 41.0945 77.3035 41.0945Z" fill="#28A745"/>
<path d="M70.5385 42.7942C68.2232 42.7942 67.0656 41.6493 67.0656 39.3595V35.5492H65.3828V33.8676H67.0656V31.2559H69.3033V33.8676H71.9527V35.5492H69.3033V39.2343C69.3033 39.8067 69.4286 40.2361 69.6792 40.5223C69.9298 40.8085 70.3356 40.9516 70.8965 40.9516C71.0636 40.9516 71.2366 40.9337 71.4157 40.898C71.5947 40.8502 71.7797 40.8025 71.9706 40.7549L72.3107 42.4006C72.0959 42.5199 71.8214 42.6153 71.4873 42.6869C71.165 42.7584 70.8488 42.7942 70.5385 42.7942Z" fill="#28A745"/>
<path d="M59.8894 42.7942C58.8988 42.7942 57.98 42.6689 57.1326 42.4185C56.2852 42.156 55.5691 41.8043 54.9844 41.363L55.6825 39.5563C56.2673 39.9736 56.9059 40.2956 57.598 40.5223C58.3022 40.7488 59.0659 40.8622 59.8894 40.8622C60.8322 40.8622 61.5185 40.707 61.9481 40.397C62.3778 40.075 62.5926 39.6636 62.5926 39.1627C62.5926 38.7453 62.4375 38.4173 62.1271 38.1788C61.8288 37.9403 61.3097 37.7435 60.5697 37.5885L58.6005 37.177C56.3568 36.6999 55.235 35.5492 55.235 33.7245C55.235 32.9374 55.4438 32.2516 55.8616 31.6673C56.2793 31.0828 56.858 30.6297 57.598 30.3077C58.338 29.9857 59.1913 29.8247 60.158 29.8247C61.0172 29.8247 61.8228 29.9558 62.5747 30.2183C63.3265 30.4687 63.9531 30.8265 64.4543 31.2916L63.7562 33.0089C62.7656 32.174 61.5603 31.7567 60.14 31.7567C59.3166 31.7567 58.6721 31.9296 58.2067 32.2755C57.7412 32.6213 57.5085 33.0745 57.5085 33.635C57.5085 34.0644 57.6517 34.4101 57.9381 34.6726C58.2246 34.923 58.7139 35.1198 59.4061 35.2629L61.3574 35.6744C62.5389 35.9248 63.416 36.3184 63.9889 36.855C64.5736 37.3917 64.8661 38.1073 64.8661 39.0017C64.8661 39.753 64.6631 40.4149 64.2574 40.9874C63.8517 41.5598 63.2728 42.007 62.521 42.329C61.781 42.639 60.9038 42.7942 59.8894 42.7942Z" fill="#28A745"/>
</svg>
