<svg width="24" height="24" viewBox="0 0 24 24" fill="none" xmlns="http://www.w3.org/2000/svg">
<path d="M15 11C15.5523 11 16 10.5523 16 10C16 9.44771 15.5523 9 15 9C14.4477 9 14 9.44771 14 10C14 10.5523 14.4477 11 15 11Z" fill="#28A745"/>
<path d="M10 10C10 10.5523 9.55228 11 9 11C8.44771 11 8 10.5523 8 10C8 9.44771 8.44771 9 9 9C9.55228 9 10 9.44771 10 10Z" fill="#28A745"/>
<path fill-rule="evenodd" clip-rule="evenodd" d="M8.25146 5.27567V5C8.25146 2.92893 9.93039 1.25 12.0015 1.25C14.0726 1.25 15.7515 2.92893 15.7515 5V5.27567C16.4099 5.29605 16.9962 5.33261 17.5164 5.39818C18.7177 5.54961 19.6901 5.8682 20.4412 6.6018C20.6918 6.84656 20.9146 7.1183 21.1054 7.41205C21.6775 8.29247 21.7992 9.30842 21.7121 10.516C21.6269 11.6979 21.3301 13.1818 20.9535 15.0648L20.9343 15.1604C20.673 16.4673 20.465 17.5074 20.2076 18.3256C19.9425 19.1683 19.604 19.8497 19.0376 20.4017C18.8429 20.5915 18.6321 20.7643 18.4078 20.918C17.7555 21.3651 17.0209 21.5634 16.1426 21.6581C15.2898 21.75 14.2291 21.75 12.8963 21.75H11.1068C9.77395 21.75 8.71327 21.75 7.8605 21.6581C6.98214 21.5634 6.2476 21.3651 5.59531 20.918C5.37096 20.7643 5.16023 20.5915 4.96545 20.4017C4.39912 19.8497 4.0606 19.1683 3.79551 18.3256C3.53813 17.5074 3.33013 16.4673 3.06875 15.1604L3.04968 15.065C2.67304 13.1819 2.37624 11.698 2.291 10.516C2.2039 9.30842 2.32561 8.29247 2.89765 7.41205C3.08851 7.1183 3.31128 6.84656 3.5619 6.6018C4.31303 5.8682 5.28538 5.54961 6.48664 5.39818C7.00681 5.33261 7.59308 5.29605 8.25146 5.27567ZM9.75146 5C9.75146 3.75736 10.7589 2.75 12.0015 2.75C13.2441 2.75 14.2515 3.75736 14.2515 5V5.2522C13.8273 5.24999 13.3795 5.25 12.907 5.25H11.0961C10.6236 5.25 10.1758 5.24999 9.75146 5.2522V5ZM4.60995 7.67491C5.02439 7.27015 5.61792 7.01956 6.67424 6.88641C7.74514 6.75141 9.16376 6.75 11.1501 6.75H12.853C14.8393 6.75 16.2579 6.75141 17.3288 6.88641C18.3852 7.01956 18.9787 7.27015 19.3931 7.67491C19.5646 7.84238 19.717 8.02831 19.8476 8.2293C20.1632 8.71507 20.2926 9.34622 20.216 10.4081C20.1383 11.4847 19.8615 12.8761 19.472 14.8238C19.2002 16.1827 19.007 17.1434 18.7767 17.8755C18.5513 18.5919 18.3118 19.0145 17.9907 19.3275C17.8574 19.4573 17.7133 19.5755 17.5597 19.6808C17.1899 19.9343 16.7286 20.0863 15.9818 20.1667C15.2188 20.249 14.2389 20.25 12.853 20.25H11.1501C9.76417 20.25 8.78431 20.249 8.02124 20.1667C7.27453 20.0863 6.81322 19.9343 6.44334 19.6808C6.28984 19.5755 6.14566 19.4573 6.01239 19.3275C5.69125 19.0145 5.45174 18.5919 5.22638 17.8755C4.99609 17.1434 4.80293 16.1828 4.53113 14.8238C4.14159 12.8761 3.86476 11.4847 3.78711 10.4081C3.71052 9.34622 3.83984 8.71507 4.15547 8.2293C4.28606 8.02831 4.43848 7.84238 4.60995 7.67491Z" fill="#28A745"/>
</svg>
