<svg width="46" height="46" viewBox="0 0 46 46" fill="none" xmlns="http://www.w3.org/2000/svg">
<path fill-rule="evenodd" clip-rule="evenodd" d="M34.6742 4.88514C33.6155 4.2923 32.4883 4.2326 31.2969 4.3815C30.1651 4.52295 28.7883 4.88081 27.1337 5.31089L23.2653 6.31618C21.6114 6.74596 20.2342 7.10382 19.1805 7.53041C18.0726 7.97895 17.1147 8.58161 16.4934 9.62541C15.8681 10.6758 15.8061 11.7987 15.9619 12.9716C16.1088 14.0774 16.4796 15.4194 16.9213 17.0181L17.9612 20.7822C18.4031 22.3819 18.7737 23.7235 19.2163 24.7516C19.6861 25.8434 20.3138 26.7728 21.3787 27.369C22.4373 27.9619 23.5645 28.0217 24.756 27.8727C25.8876 27.7313 27.2646 27.3734 28.919 26.9433L32.7876 25.9381C34.4415 25.5082 35.8187 25.1503 36.8723 24.7239C37.9801 24.2752 38.938 23.6726 39.5594 22.6287C40.1846 21.5784 40.2467 20.4554 40.0909 19.2826C39.9439 18.1768 39.5732 16.8349 39.1314 15.2361L38.0914 11.4719C37.6497 9.87237 37.279 8.53062 36.8366 7.50249C36.3666 6.41081 35.7391 5.48146 34.6742 4.88514ZM27.7629 8.11785C29.5356 7.65714 30.7301 7.34971 31.6534 7.23431C32.5381 7.12373 32.9617 7.22123 33.2695 7.39362C33.5712 7.56254 33.8591 7.85701 34.1958 8.63907C34.5508 9.46389 34.8713 10.6123 35.3472 12.3347L36.3331 15.9036C36.8092 17.6265 37.1233 18.7759 37.241 19.6614C37.3526 20.5022 37.2527 20.8832 37.089 21.1583C36.9213 21.4398 36.6173 21.7252 35.7934 22.0589C34.9353 22.4064 33.7429 22.7192 31.9696 23.18L28.29 24.1364C26.5171 24.5972 25.3226 24.9046 24.3994 25.02C23.5146 25.1306 23.0912 25.033 22.7832 24.8605C22.4817 24.6917 22.1937 24.3972 21.8571 23.6151C21.5021 22.7903 21.1815 21.6419 20.7056 19.9195L19.7196 16.3506C19.2437 14.6278 18.9295 13.4783 18.8118 12.5929C18.7001 11.752 18.8001 11.371 18.9638 11.096C19.1315 10.8144 19.4354 10.5289 20.2594 10.1953C21.1176 9.84784 22.31 9.53496 24.0831 9.07415L27.7629 8.11785Z" fill="#020A13"/>
<path fill-rule="evenodd" clip-rule="evenodd" d="M6.13468 9.05566C5.36968 8.84343 4.57744 9.29152 4.36519 10.0565C4.15294 10.8215 4.60104 11.6138 5.36605 11.826L8.63148 12.732C9.44721 12.9583 10.0547 13.5745 10.2622 14.3257L14.0022 27.8634C13.8585 27.8915 13.7149 27.9243 13.5715 27.9617C9.78219 28.9465 7.46663 32.7583 8.50686 36.5236C9.54209 40.2707 13.4783 42.4319 17.2526 41.451C20.5557 40.5927 22.739 37.5862 22.5559 34.335L38.6952 30.1407C39.4636 29.941 39.9247 29.1561 39.725 28.3877C39.5253 27.6194 38.7404 27.1584 37.972 27.3581L21.799 31.5612C20.8248 29.6688 19.0353 28.3527 16.9949 27.8994L13.0334 13.5601C12.5482 11.804 11.1575 10.4492 9.4001 9.96165L6.13468 9.05566ZM14.2947 30.7441C16.6171 30.1405 18.9477 31.4885 19.5462 33.6546C20.1396 35.8026 18.8369 38.0688 16.5295 38.6684C14.207 39.2719 11.8765 37.9239 11.2781 35.7579C10.6847 33.6101 11.9872 31.3438 14.2947 30.7441Z" fill="#020A13"/>
</svg>
