<svg width="46" height="46" viewBox="0 0 46 46" fill="none" xmlns="http://www.w3.org/2000/svg">
<g clip-path="url(#clip0_1_7818)">
<path d="M23.001 6.30442C23.7085 6.30442 24.2812 5.73022 24.2812 5.02271C24.2812 4.31519 23.7085 3.74243 23.001 3.74243C22.2935 3.74243 21.7207 4.31519 21.7207 5.02271C21.7207 5.73022 22.2935 6.30442 23.001 6.30442Z" fill="#020A13"/>
<path d="M40.5489 38.6763C40.3693 38.0081 40.118 37.4073 39.8063 36.8738C39.2616 35.9374 38.5373 35.2074 37.7413 34.6305C37.1433 34.1953 36.5032 33.8429 35.8546 33.5383C34.8803 33.0821 33.8851 32.7325 32.9656 32.3928C32.0475 32.0545 31.2066 31.7218 30.5525 31.3372C30.3139 31.1954 30.099 31.0479 29.9138 30.8935C29.6345 30.6604 29.4196 30.4148 29.261 30.1383C29.1038 29.8617 28.9999 29.5501 28.9578 29.1612C28.9296 28.8832 28.9171 28.6222 28.9171 28.3737C28.9171 27.638 29.0266 26.9993 29.1641 26.3494C29.5754 25.8847 29.9517 25.333 30.3068 24.6718C30.6648 24.0064 31.0031 23.2301 31.34 22.3106C31.5562 22.2123 31.7738 22.093 31.9872 21.9498C32.4729 21.6241 32.9348 21.1693 33.318 20.5615C33.7027 19.9565 34.0116 19.2011 34.2207 18.2705C34.2796 18.0136 34.3078 17.7566 34.3078 17.504C34.3078 16.9762 34.1842 16.4722 33.9736 16.0216C33.8291 15.7113 33.6437 15.4249 33.4276 15.1653C33.5384 14.7595 33.6719 14.2135 33.7897 13.5748C33.954 12.6876 34.0902 11.6221 34.0902 10.5004C34.0902 9.77743 34.034 9.03065 33.8866 8.29357C33.7771 7.7405 33.6156 7.19299 33.3868 6.66659C33.0442 5.87624 32.5459 5.13503 31.8524 4.52157C31.2109 3.9516 30.4065 3.4996 29.4364 3.20905C29.0251 2.71769 28.6012 2.30082 28.1646 1.95267C27.4262 1.36303 26.6485 0.968613 25.8567 0.731335C25.7065 0.686413 25.5563 0.645714 25.4047 0.610585C24.6901 0.221831 23.8703 -0.0014306 23.0013 6.89918e-06C22.3106 6.89918e-06 21.648 0.140433 21.0458 0.394511C20.772 0.511038 20.5109 0.650027 20.2638 0.810038C20.1852 0.833937 20.1066 0.86062 20.0308 0.887214C19.677 1.00796 19.3401 1.1483 18.8965 1.32242C18.7281 1.3898 18.5062 1.48809 18.2395 1.62142C17.7748 1.85726 17.1754 2.20396 16.5339 2.68274C15.5723 3.40005 14.5096 4.41223 13.6814 5.78514C13.2686 6.47163 12.9135 7.24653 12.6649 8.1155C12.4151 8.98169 12.2704 9.9405 12.2704 10.9863C12.2704 11.6419 12.3266 12.3297 12.4487 13.0513C12.4487 13.1032 12.4501 13.1495 12.4529 13.1987C12.4586 13.2885 12.4684 13.3826 12.4782 13.4794C12.4922 13.624 12.5104 13.7729 12.5231 13.8978C12.5301 13.9596 12.5343 14.0157 12.5385 14.0592C12.54 14.0802 12.5413 14.0986 12.5413 14.1111L12.5428 14.1266V14.1308V14.2136L12.7197 14.9998C12.4656 15.2778 12.2452 15.588 12.0753 15.9305C11.838 16.4036 11.6949 16.9398 11.6949 17.5055C11.6949 17.7568 11.723 18.0137 11.782 18.272C11.9224 18.8924 12.1062 19.4344 12.3267 19.9061C12.658 20.615 13.0763 21.1667 13.541 21.5808C13.9004 21.9023 14.2837 22.1381 14.6655 22.3108C15.0024 23.2289 15.3393 24.0052 15.6959 24.6692C16.0525 25.3318 16.4273 25.8835 16.8386 26.3482C16.9776 26.9981 17.0857 27.6383 17.0857 28.3739C17.0857 28.6224 17.0745 28.8835 17.0436 29.1615C17.0169 29.4296 16.958 29.6599 16.8723 29.8676C16.746 30.1778 16.5621 30.4446 16.3108 30.6944C16.0595 30.9429 15.7395 31.1731 15.359 31.3893C14.9744 31.6083 14.5294 31.8104 14.0436 32.0069C13.1943 32.3509 12.2257 32.6752 11.2444 33.0668C10.5074 33.3616 9.76201 33.6943 9.0517 34.114C8.51821 34.4285 8.00583 34.7907 7.53415 35.2231C6.82663 35.8702 6.2174 36.676 5.79621 37.6741C5.37368 38.6722 5.14062 39.8542 5.14062 41.251C5.14062 41.4462 5.18276 41.6357 5.25014 41.8084C5.3133 41.9712 5.40036 42.1214 5.50422 42.2618C5.69793 42.5258 5.94787 42.7629 6.25523 42.9903C6.79285 43.3862 7.50882 43.7582 8.43537 44.1092C9.82373 44.6328 11.6838 45.1031 14.09 45.4456C16.4961 45.7866 19.4455 46 23.0013 46C26.0841 46 28.7106 45.84 30.923 45.5733C32.5823 45.3753 34.0072 45.117 35.2173 44.8223C36.1241 44.6004 36.9116 44.3576 37.5869 44.1007C38.0937 43.9098 38.5373 43.7091 38.9219 43.5041C39.2111 43.3496 39.4679 43.1924 39.694 43.0296C40.0323 42.784 40.3061 42.5298 40.5124 42.2449C40.6149 42.1003 40.7005 41.9487 40.7637 41.783C40.824 41.6173 40.862 41.4377 40.862 41.251C40.862 40.2949 40.7524 39.4414 40.5489 38.6763ZM29.3353 32.3227L24.8768 39.2828L24.3812 35.866L25.6447 34.5268L24.8263 33.1609L28.2825 31.3443C28.3793 31.4664 28.4804 31.5844 28.5885 31.6939C28.8159 31.9282 29.0685 32.1346 29.3353 32.3227ZM27.3545 7.53143H31.097V9.668H24.916C24.9287 9.66234 24.9427 9.65677 24.9567 9.65111C25.8594 9.26928 26.6245 8.63336 27.1664 7.83178C27.2324 7.73358 27.2956 7.63394 27.3545 7.53143ZM19.4834 3.53617C19.7726 2.85255 20.2583 2.26856 20.8675 1.85582C21.4767 1.44451 22.2096 1.20589 23.0013 1.20589C23.5306 1.20589 24.0317 1.31119 24.4879 1.50489C25.1716 1.7941 25.7555 2.27835 26.1669 2.88902C26.5797 3.49825 26.8183 4.22967 26.8183 5.02281C26.8183 5.55208 26.713 6.05179 26.5193 6.50802C26.2301 7.19308 25.7458 7.77706 25.1352 8.18837C24.5259 8.59967 23.7945 8.83973 23.0014 8.83973C22.4721 8.83973 21.9724 8.733 21.5162 8.54073C20.8311 8.25153 20.2471 7.76583 19.8344 7.1566C19.4244 6.54737 19.183 5.81595 19.183 5.02281C19.1829 4.49363 19.291 3.99248 19.4834 3.53617ZM14.9056 7.53143H18.6495C19.0314 8.19403 19.5606 8.76121 20.1923 9.18797C20.4717 9.3761 20.7707 9.53755 21.0865 9.66809H14.9056V7.53143ZM17.0084 23.9658C16.6589 23.3172 16.3122 22.5073 15.9542 21.5007L15.8377 21.1708L15.5092 21.05C15.2818 20.9658 15.0614 20.8577 14.8481 20.7146C14.5266 20.4997 14.2219 20.2064 13.9426 19.7655C13.6646 19.3276 13.4133 18.7393 13.2351 17.9434H13.2337C13.2 17.7918 13.1845 17.6472 13.1845 17.5054C13.1845 17.1882 13.2617 16.885 13.4063 16.5958C13.5257 16.3557 13.6941 16.1283 13.8963 15.9219C14.2388 16.44 14.5209 16.8485 14.6235 16.9524C14.9589 17.2878 15.0053 16.4975 14.8466 15.6117C14.5546 13.9931 15.3338 14.7076 17.3145 10.8879H17.8059C18.3098 10.9511 18.8518 10.9455 19.4146 10.8879H29.6246C29.6864 10.982 29.7523 11.0746 29.8225 11.1672C31.0943 12.863 31.8173 16.8401 31.8173 16.8401C31.8173 16.8401 31.99 16.5116 32.2468 16.0722C32.4026 16.2533 32.5304 16.4484 32.6231 16.6506C32.7509 16.9229 32.8182 17.2079 32.8182 17.5041C32.8182 17.6473 32.8028 17.7919 32.7691 17.9435C32.6498 18.4728 32.4981 18.9121 32.3283 19.2744C32.0728 19.8204 31.7795 20.1953 31.4706 20.4705C31.1631 20.7456 30.836 20.9239 30.495 21.0502L30.1665 21.1695L30.05 21.4994C29.692 22.5074 29.3439 23.3173 28.9958 23.9674C28.6476 24.6174 28.2995 25.1044 27.9373 25.4849L27.7955 25.6351L27.7506 25.8387C27.5892 26.5799 27.4277 27.4012 27.4277 28.374C27.4277 28.673 27.4432 28.9861 27.4783 29.3146C27.5176 29.7006 27.6061 30.0628 27.738 30.3969C27.7437 30.4124 27.7521 30.4278 27.7577 30.4433L23.2346 32.8199L18.223 30.4952C18.3775 30.1358 18.4828 29.74 18.5263 29.3146C18.56 28.9861 18.574 28.673 18.574 28.374C18.5754 27.4012 18.414 26.5786 18.2511 25.8359L18.2076 25.6352L18.0658 25.4836C17.7047 25.1029 17.3566 24.6144 17.0084 23.9658ZM16.9677 32.0981C17.2288 31.8903 17.4703 31.6559 17.6809 31.3934L21.5049 33.1664L20.6879 34.5267L21.9514 35.8659L21.4852 39.082L16.6084 32.3634C16.7319 32.2792 16.8527 32.1922 16.9677 32.0981ZM39.3346 41.3267C39.2855 41.411 39.1689 41.5499 38.9725 41.7085C38.7998 41.8461 38.5696 42.002 38.279 42.1592C37.7708 42.4372 37.0815 42.7292 36.2055 43.0043C34.8916 43.417 33.1579 43.7961 30.9694 44.0684C28.7822 44.3421 26.1375 44.512 23.0013 44.512C19.9705 44.512 17.4015 44.3534 15.2578 44.0965C13.6504 43.9028 12.2818 43.6543 11.139 43.375C10.2813 43.1658 9.55132 42.9398 8.94344 42.7096C8.48721 42.5369 8.10116 42.3614 7.78248 42.1915C7.54242 42.0638 7.34171 41.9388 7.17882 41.8209C6.93319 41.6455 6.77731 41.4855 6.70013 41.3759C6.66078 41.3226 6.6412 41.2819 6.63419 41.2608C6.62997 41.2524 6.62996 41.2482 6.62996 41.2482C6.62996 40.4129 6.72403 39.6984 6.88827 39.0807C7.03148 38.5374 7.22797 38.0672 7.46803 37.6502C7.88778 36.9217 8.43951 36.3503 9.09366 35.866C9.58358 35.5038 10.1311 35.195 10.7123 34.9199C11.5827 34.5043 12.5274 34.1674 13.4525 33.8263C14.2331 33.5385 14.9981 33.2479 15.7043 32.8914L23.4084 43.5069L30.2309 32.8562C30.5721 33.0331 30.9272 33.1917 31.2923 33.3419C32.2076 33.7182 33.1818 34.0439 34.1238 34.4158C34.8299 34.6952 35.5149 35.0012 36.1397 35.3634C36.6086 35.6357 37.0423 35.9404 37.4284 36.29C38.0082 36.815 38.4841 37.434 38.8252 38.2301C39.1649 39.026 39.3727 40.003 39.3741 41.2455C39.3711 41.2537 39.3626 41.2818 39.3346 41.3267Z" fill="#020A13"/>
</g>
<defs>
<clipPath id="clip0_1_7818">
<rect width="46" height="46" fill="white"/>
</clipPath>
</defs>
</svg>
