<svg width="46" height="46" viewBox="0 0 46 46" fill="none" xmlns="http://www.w3.org/2000/svg">
<path d="M16.8661 21.4667C12.632 21.4667 9.19948 18.0341 9.19948 13.8V7.66665C9.19948 6.81994 9.88611 6.13332 10.7328 6.13332H12.2661C13.1129 6.13332 13.7995 5.44669 13.7995 4.59998C13.7995 3.75328 13.1129 3.06665 12.2661 3.06665H10.7328C8.19239 3.06665 6.13281 5.12622 6.13281 7.66665V13.8C6.1368 17.3162 7.86793 20.6064 10.7635 22.6013C13.533 25.043 15.1838 28.5108 15.3328 32.2C15.3328 38.1278 20.1383 42.9333 26.0661 42.9333C31.994 42.9333 36.7995 38.1278 36.7995 32.2V30.452C40.0793 29.6053 42.0514 26.2599 41.2047 22.9801C40.3577 19.7003 37.0126 17.7281 33.7328 18.5748C30.453 19.4218 28.4808 22.7669 29.3275 26.0467C29.8854 28.2072 31.5723 29.8942 33.7328 30.452V32.2C33.7328 36.4341 30.3003 39.8666 26.0661 39.8666C21.832 39.8666 18.3995 36.4341 18.3995 32.2C18.5562 28.5062 20.2186 25.0375 22.9995 22.6013C25.8834 20.5994 27.6025 17.3107 27.5995 13.8V7.66665C27.5995 5.12622 25.5399 3.06665 22.9995 3.06665H21.4661C20.6194 3.06665 19.9328 3.75328 19.9328 4.59998C19.9328 5.44669 20.6194 6.13332 21.4661 6.13332H22.9995C23.8462 6.13332 24.5328 6.81994 24.5328 7.66665V13.8C24.5328 18.0341 21.1003 21.4667 16.8661 21.4667ZM35.2661 27.6C33.5724 27.6 32.1995 26.227 32.1995 24.5333C32.1995 22.8396 33.5724 21.4667 35.2661 21.4667C36.9599 21.4667 38.3328 22.8396 38.3328 24.5333C38.3328 26.227 36.9599 27.6 35.2661 27.6Z" fill="#020A13"/>
</svg>
