<svg width="20" height="20" viewBox="0 0 20 20" fill="none" xmlns="http://www.w3.org/2000/svg">
<path fill-rule="evenodd" clip-rule="evenodd" d="M5.83464 2.29199C4.48883 2.29199 3.27184 2.62835 2.38852 3.44858C1.49682 4.27659 1.04297 5.5062 1.04297 7.08366V12.917C1.04297 14.4945 1.49682 15.7241 2.38852 16.5521C3.27184 17.3723 4.48883 17.7087 5.83464 17.7087H14.168C15.5138 17.7087 16.7308 17.3723 17.6141 16.5521C18.5058 15.7241 18.9596 14.4945 18.9596 12.917V7.08366C18.9596 5.5062 18.5058 4.27659 17.6141 3.44858C16.7308 2.62835 15.5138 2.29199 14.168 2.29199H5.83464ZM16.0251 6.96891C16.2981 6.75786 16.3485 6.36534 16.1374 6.09221C15.9264 5.81907 15.5339 5.76874 15.2607 5.9798L10.6381 9.55166C10.2631 9.84158 9.73947 9.84158 9.3643 9.55166L4.7418 5.9798C4.46866 5.76874 4.07615 5.81907 3.86509 6.09221C3.65404 6.36534 3.70436 6.75786 3.9775 6.96891L8.60005 10.5408C9.42538 11.1785 10.5771 11.1785 11.4025 10.5408L16.0251 6.96891Z" fill="#E0EEF9"/>
</svg>
