<svg width="232" height="40" viewBox="0 0 232 40" fill="none" xmlns="http://www.w3.org/2000/svg">
<g clip-path="url(#clip0_1_8787)">
<path d="M20 0C8.95312 0 0 8.95312 0 20C0 31.0469 8.95312 40 20 40C31.0469 40 40 31.0469 40 20C40 8.95312 31.0469 0 20 0ZM32.4844 32.4766C30.8594 34.1016 28.9766 35.375 26.875 36.2578C24.7031 37.1797 22.3906 37.6406 20 37.6406C17.6172 37.6406 15.3047 37.1719 13.125 36.2578C11.0234 35.3672 9.13281 34.0938 7.51562 32.4766C5.89062 30.8516 4.61719 28.9688 3.73438 26.8672C2.8125 24.6953 2.34375 22.3828 2.34375 20C2.34375 17.6172 2.8125 15.3047 3.72656 13.125C4.61719 11.0234 5.89062 9.13281 7.50781 7.51562C9.14062 5.89062 11.0234 4.61719 13.125 3.72656C15.3047 2.8125 17.6172 2.34375 20 2.34375C22.3828 2.34375 24.6953 2.8125 26.875 3.72656C28.9766 4.61719 30.8672 5.89063 32.4844 7.50781C34.1094 9.13281 35.3828 11.0156 36.2656 13.1172C37.1875 15.2891 37.6484 17.6016 37.6484 19.9922C37.6484 22.375 37.1797 24.6875 36.2656 26.8672C35.375 28.9688 34.1016 30.8594 32.4844 32.4766Z" fill="#E0EEF9"/>
<path d="M22.6406 13.1797C23.4453 13.1797 24.3047 13.4297 24.3047 13.4297L24.8203 10.3672C24.8203 10.3672 23.7266 9.99219 21.1172 9.99219C19.5156 9.99219 18.5859 10.6016 17.9062 11.5C17.2656 12.3516 17.2422 13.7188 17.2422 14.6016V16.6094H15.1719V19.6016H17.2422V29.9922H21.1172V19.6016H24.1875L24.4141 16.6094H21.1172V14.2734C21.1172 13.4688 21.8359 13.1797 22.6406 13.1797Z" fill="#E0EEF9"/>
</g>
<g clip-path="url(#clip1_1_8787)">
<path d="M84 0C72.9531 0 64 8.95312 64 20C64 31.0469 72.9531 40 84 40C95.0469 40 104 31.0469 104 20C104 8.95312 95.0469 0 84 0ZM96.4844 32.4766C94.8594 34.1016 92.9766 35.375 90.875 36.2578C88.7031 37.1797 86.3906 37.6406 84 37.6406C81.6172 37.6406 79.3047 37.1719 77.125 36.2578C75.0234 35.3672 73.1328 34.0938 71.5156 32.4766C69.8906 30.8516 68.6172 28.9688 67.7344 26.8672C66.8125 24.6953 66.3438 22.3828 66.3438 20C66.3438 17.6172 66.8125 15.3047 67.7266 13.125C68.6172 11.0234 69.8906 9.13281 71.5078 7.51562C73.1406 5.89062 75.0234 4.61719 77.125 3.72656C79.3047 2.8125 81.6172 2.34375 84 2.34375C86.3828 2.34375 88.6953 2.8125 90.875 3.72656C92.9766 4.61719 94.8672 5.89063 96.4844 7.50781C98.1094 9.13281 99.3828 11.0156 100.266 13.1172C101.188 15.2891 101.648 17.6016 101.648 19.9922C101.648 22.375 101.18 24.6875 100.266 26.8672C99.375 28.9688 98.1016 30.8594 96.4844 32.4766Z" fill="#E0EEF9"/>
<path d="M78.4062 15.8906H74.5078V28.3672H78.4062V15.8906Z" fill="#E0EEF9"/>
<path d="M76.375 10C74.9375 10 73.9922 10.9297 73.9922 12.1641C73.9922 13.375 74.9062 14.3281 76.3203 14.3281H76.3516C77.8203 14.3281 78.7344 13.3672 78.7266 12.1641C78.6953 10.9297 77.8125 10 76.375 10Z" fill="#E0EEF9"/>
<path d="M89.0547 15.7734C86.8203 15.7734 85.4219 16.9922 85.1641 17.8516V15.8906H80.7812C80.8359 16.9297 80.7812 28.3672 80.7812 28.3672H85.1641V21.625C85.1641 21.2422 85.1484 20.8672 85.2578 20.6016C85.5547 19.8516 86.2031 19.0703 87.3672 19.0703C88.8906 19.0703 89.5781 20.2266 89.5781 21.9141V28.3672H94V21.4297C94 17.5703 91.8281 15.7734 89.0547 15.7734Z" fill="#E0EEF9"/>
</g>
<g clip-path="url(#clip2_1_8787)">
<path d="M148 0C136.953 0 128 8.95312 128 20C128 31.0469 136.953 40 148 40C159.047 40 168 31.0469 168 20C168 8.95312 159.047 0 148 0ZM160.484 32.4766C158.859 34.1016 156.977 35.375 154.875 36.2578C152.703 37.1797 150.391 37.6406 148 37.6406C145.617 37.6406 143.305 37.1719 141.125 36.2578C139.023 35.3672 137.133 34.0938 135.516 32.4766C133.891 30.8516 132.617 28.9688 131.734 26.8672C130.813 24.6953 130.344 22.3828 130.344 20C130.344 17.6172 130.812 15.3047 131.727 13.125C132.617 11.0234 133.891 9.13281 135.508 7.51562C137.141 5.89062 139.023 4.61719 141.125 3.72656C143.305 2.8125 145.617 2.34375 148 2.34375C150.383 2.34375 152.695 2.8125 154.875 3.72656C156.977 4.61719 158.867 5.89063 160.484 7.50781C162.109 9.13281 163.383 11.0156 164.266 13.1172C165.188 15.2891 165.648 17.6016 165.648 19.9922C165.648 22.375 165.18 24.6875 164.266 26.8672C163.375 28.9688 162.102 30.8594 160.484 32.4766Z" fill="#E0EEF9"/>
<path d="M154.141 10H141.875C139.742 10 138.008 11.7344 138.008 13.8672V17.9531V26.1406C138.008 28.2734 139.742 30.0078 141.875 30.0078H154.141C156.273 30.0078 158.008 28.2734 158.008 26.1406V17.9453V13.8594C158 11.7344 156.266 10 154.141 10ZM155.25 12.3047H155.695V12.7422V15.6953L152.312 15.7031L152.305 12.3125L155.25 12.3047ZM145.148 17.9453C145.789 17.0625 146.828 16.4766 148 16.4766C149.172 16.4766 150.211 17.0547 150.852 17.9453C151.273 18.5234 151.516 19.2344 151.516 20C151.516 21.9375 149.938 23.5234 147.992 23.5234C146.047 23.5234 144.484 21.9375 144.484 20C144.484 19.2344 144.734 18.5234 145.148 17.9453ZM156.055 26.1328C156.055 27.1875 155.195 28.0469 154.141 28.0469H141.875C140.82 28.0469 139.961 27.1875 139.961 26.1328V17.9453H142.945C142.688 18.5781 142.539 19.2734 142.539 20C142.539 23.0156 144.992 25.4688 148.008 25.4688C151.023 25.4688 153.477 23.0156 153.477 20C153.477 19.2734 153.328 18.5781 153.07 17.9453H156.055V26.1328Z" fill="#E0EEF9"/>
</g>
<g clip-path="url(#clip3_1_8787)">
<path d="M212 0C200.953 0 192 8.95312 192 20C192 31.0469 200.953 40 212 40C223.047 40 232 31.0469 232 20C232 8.95312 223.047 0 212 0ZM224.484 32.4766C222.859 34.1016 220.977 35.375 218.875 36.2578C216.703 37.1797 214.391 37.6406 212 37.6406C209.617 37.6406 207.305 37.1719 205.125 36.2578C203.023 35.3672 201.133 34.0938 199.516 32.4766C197.891 30.8516 196.617 28.9688 195.734 26.8672C194.813 24.6953 194.344 22.3828 194.344 20C194.344 17.6172 194.812 15.3047 195.727 13.125C196.617 11.0234 197.891 9.13281 199.508 7.51562C201.141 5.89062 203.023 4.61719 205.125 3.72656C207.305 2.8125 209.617 2.34375 212 2.34375C214.383 2.34375 216.695 2.8125 218.875 3.72656C220.977 4.61719 222.867 5.89063 224.484 7.50781C226.109 9.13281 227.383 11.0156 228.266 13.1172C229.188 15.2891 229.648 17.6016 229.648 19.9922C229.648 22.375 229.18 24.6875 228.266 26.8672C227.375 28.9688 226.102 30.8594 224.484 32.4766Z" fill="#E0EEF9"/>
<path d="M218.555 12.9844H205.445C205.445 12.9844 202 12.9844 202 16.4297V23.5781C202 23.5781 202 27.0234 205.445 27.0234H218.555C218.555 27.0234 222 27.0234 222 23.5781V16.4297C222 16.4297 222 12.9844 218.555 12.9844ZM209.336 23.8516V16.1562L215.883 20.0078L209.336 23.8516Z" fill="#E0EEF9"/>
</g>
<defs>
<clipPath id="clip0_1_8787">
<rect width="40" height="40" fill="white"/>
</clipPath>
<clipPath id="clip1_1_8787">
<rect width="40" height="40" fill="white" transform="translate(64)"/>
</clipPath>
<clipPath id="clip2_1_8787">
<rect width="40" height="40" fill="white" transform="translate(128)"/>
</clipPath>
<clipPath id="clip3_1_8787">
<rect width="40" height="40" fill="white" transform="translate(192)"/>
</clipPath>
</defs>
</svg>
