<svg width="20" height="20" viewBox="0 0 20 20" fill="none" xmlns="http://www.w3.org/2000/svg">
<path d="M10 0C5.83203 0 2.5 3.33203 2.5 7.5C2.5 8.94141 2.92969 10.0547 3.67578 11.1836L9.21094 19.582C9.37891 19.8359 9.66797 20 10 20C10.332 20 10.625 19.832 10.7891 19.582L16.3242 11.1836C17.0703 10.0547 17.5 8.94141 17.5 7.5C17.5 3.33203 14.168 0 10 0ZM10 11.6641C7.69922 11.6641 5.83203 9.79688 5.83203 7.49219C5.83203 5.1875 7.69922 3.32031 10 3.32031C12.3008 3.32031 14.168 5.1875 14.168 7.49219C14.168 9.79688 12.3008 11.6641 10 11.6641ZM10 5C8.61719 5 7.5 6.11719 7.5 7.5C7.5 8.88281 8.61719 10 10 10C11.3828 10 12.5 8.88281 12.5 7.5C12.5 6.11719 11.3828 5 10 5Z" fill="#E0EEF9"/>
</svg>
