<svg width="20" height="20" viewBox="0 0 20 20" fill="none" xmlns="http://www.w3.org/2000/svg">
<path d="M13.7955 10.7555L13.4159 11.1328C13.4159 11.1328 12.5138 12.0299 10.0513 9.58132C7.5888 7.13283 8.49095 6.2358 8.49095 6.2358L8.72995 5.99814C9.31878 5.41269 9.37428 4.47275 8.86053 3.78656L7.80975 2.38289C7.17393 1.53359 5.94533 1.4214 5.21657 2.14601L3.90857 3.44659C3.54722 3.80589 3.30507 4.27165 3.33444 4.78833C3.40956 6.11017 4.00762 8.95424 7.34483 12.2725C10.8838 15.7913 14.2044 15.9312 15.5623 15.8046C15.9918 15.7646 16.3653 15.5458 16.6663 15.2465L17.8501 14.0695C18.6492 13.2749 18.4239 11.9127 17.4014 11.357L15.8094 10.4915C15.138 10.1266 14.3202 10.2337 13.7955 10.7555Z" fill="#E0EEF9"/>
</svg>
