<svg width="18" height="18" viewBox="0 0 18 18" fill="none" xmlns="http://www.w3.org/2000/svg">
<path fill-rule="evenodd" clip-rule="evenodd" d="M4.08245 4.39024H2.70432C2.24522 4.39026 1.80318 4.5375 1.4672 4.80233C1.13123 5.06716 0.926276 5.4299 0.893615 5.81751L0.00460007 16.3541C-0.013134 16.5646 0.0205287 16.7758 0.103491 16.9748C0.186453 17.1738 0.316936 17.3561 0.48681 17.5106C0.656684 17.665 0.862309 17.7881 1.09087 17.8723C1.31943 17.9565 1.56603 18 1.81531 18H16.1848C16.434 17.9999 16.6805 17.9563 16.909 17.8721C17.1375 17.7878 17.3431 17.6647 17.5129 17.5103C17.6828 17.3559 17.8132 17.1736 17.8963 16.9747C17.9793 16.7758 18.0131 16.5645 17.9955 16.3541L17.1065 5.81751C17.0738 5.4299 16.8688 5.06716 16.5329 4.80233C16.1969 4.5375 15.7549 4.39026 15.2958 4.39024H13.9275V4.17073C13.9275 3.06458 13.4083 2.00374 12.4843 1.22158C11.5602 0.439415 10.3069 0 9.00004 0C6.37812 0 3.95485 1.76751 4.07259 4.17073L4.08245 4.39024ZM13.9275 5.70732V9C13.9275 9.17465 13.8455 9.34216 13.6996 9.46566C13.5537 9.58916 13.3558 9.65854 13.1495 9.65854C12.9431 9.65854 12.7452 9.58916 12.5993 9.46566C12.4534 9.34216 12.3714 9.17465 12.3714 9V5.70732H5.62863V9C5.62863 9.17465 5.54666 9.34216 5.40075 9.46566C5.25485 9.58916 5.05695 9.65854 4.85061 9.65854C4.64427 9.65854 4.44638 9.58916 4.30047 9.46566C4.15456 9.34216 4.07259 9.17465 4.07259 9C4.07259 9 4.14002 7.46122 4.11772 5.70732H2.70432C2.63883 5.7074 2.57581 5.72844 2.5279 5.76622C2.47998 5.80401 2.45073 5.85574 2.44602 5.91102L1.55649 16.4476C1.55392 16.4777 1.55871 16.5079 1.57055 16.5364C1.5824 16.5648 1.60105 16.5909 1.62534 16.613C1.64962 16.6351 1.67903 16.6527 1.71171 16.6647C1.7444 16.6767 1.77966 16.6829 1.81531 16.6829H16.1848C16.2204 16.6828 16.2556 16.6765 16.2882 16.6645C16.3208 16.6524 16.3501 16.6348 16.3744 16.6127C16.3986 16.5907 16.4173 16.5646 16.4292 16.5362C16.4411 16.5078 16.446 16.4777 16.4436 16.4476L15.5541 5.91102C15.5493 5.85574 15.5201 5.80401 15.4722 5.76622C15.4243 5.72844 15.3612 5.7074 15.2958 5.70732H13.9275ZM12.3714 4.39024V4.17073C12.3714 3.41389 12.0162 2.68806 11.384 2.15289C10.7517 1.61773 9.89419 1.31707 9.00004 1.31707C8.10589 1.31707 7.24835 1.61773 6.61609 2.15289C5.98383 2.68806 5.62863 3.41389 5.62863 4.17073V4.39024H12.3714Z" fill="white"/>
</svg>
